<svg xmlns="http://www.w3.org/2000/svg" xmlns:xlink="http://www.w3.org/1999/xlink" width="500" zoomAndPan="magnify" viewBox="0 0 375 374.999991" height="500" preserveAspectRatio="xMidYMid meet" version="1.0"><defs><g/><clipPath id="7d8a11f41d"><path d="M 12.910156 13.722656 L 179.65625 13.722656 L 179.65625 179.175781 L 12.910156 179.175781 Z M 12.910156 13.722656 " clip-rule="nonzero"/></clipPath><clipPath id="7ed1ad39c8"><path d="M 54.910156 13.722656 L 137.199219 13.722656 C 160.394531 13.722656 179.199219 32.527344 179.199219 55.722656 L 179.199219 137.175781 C 179.199219 160.371094 160.394531 179.175781 137.199219 179.175781 L 54.910156 179.175781 C 31.714844 179.175781 12.910156 160.371094 12.910156 137.175781 L 12.910156 55.722656 C 12.910156 32.527344 31.714844 13.722656 54.910156 13.722656 Z M 54.910156 13.722656 " clip-rule="nonzero"/></clipPath><clipPath id="337a2ef67e"><path d="M 0.910156 0.722656 L 167.28125 0.722656 L 167.28125 166.175781 L 0.910156 166.175781 Z M 0.910156 0.722656 " clip-rule="nonzero"/></clipPath><clipPath id="40cf21ca9a"><path d="M 42.910156 0.722656 L 125.199219 0.722656 C 148.394531 0.722656 167.199219 19.527344 167.199219 42.722656 L 167.199219 124.175781 C 167.199219 147.371094 148.394531 166.175781 125.199219 166.175781 L 42.910156 166.175781 C 19.714844 166.175781 0.910156 147.371094 0.910156 124.175781 L 0.910156 42.722656 C 0.910156 19.527344 19.714844 0.722656 42.910156 0.722656 Z M 42.910156 0.722656 " clip-rule="nonzero"/></clipPath><clipPath id="2b96f1b2b3"><rect x="0" width="168" y="0" height="167"/></clipPath><clipPath id="5f2eadd452"><path d="M 12.910156 195.824219 L 179.65625 195.824219 L 179.65625 361.277344 L 12.910156 361.277344 Z M 12.910156 195.824219 " clip-rule="nonzero"/></clipPath><clipPath id="a3f6b0fb7c"><path d="M 54.910156 195.824219 L 137.199219 195.824219 C 160.394531 195.824219 179.199219 214.628906 179.199219 237.824219 L 179.199219 319.277344 C 179.199219 342.472656 160.394531 361.277344 137.199219 361.277344 L 54.910156 361.277344 C 31.714844 361.277344 12.910156 342.472656 12.910156 319.277344 L 12.910156 237.824219 C 12.910156 214.628906 31.714844 195.824219 54.910156 195.824219 Z M 54.910156 195.824219 " clip-rule="nonzero"/></clipPath><clipPath id="d33aac95fe"><path d="M 0.910156 0.824219 L 167.28125 0.824219 L 167.28125 166.277344 L 0.910156 166.277344 Z M 0.910156 0.824219 " clip-rule="nonzero"/></clipPath><clipPath id="95b55a3682"><path d="M 42.910156 0.824219 L 125.199219 0.824219 C 148.394531 0.824219 167.199219 19.628906 167.199219 42.824219 L 167.199219 124.277344 C 167.199219 147.472656 148.394531 166.277344 125.199219 166.277344 L 42.910156 166.277344 C 19.714844 166.277344 0.910156 147.472656 0.910156 124.277344 L 0.910156 42.824219 C 0.910156 19.628906 19.714844 0.824219 42.910156 0.824219 Z M 42.910156 0.824219 " clip-rule="nonzero"/></clipPath><clipPath id="40d2a664ae"><rect x="0" width="168" y="0" height="167"/></clipPath><clipPath id="eaf7087f2a"><path d="M 195.800781 13.722656 L 362.546875 13.722656 L 362.546875 179.175781 L 195.800781 179.175781 Z M 195.800781 13.722656 " clip-rule="nonzero"/></clipPath><clipPath id="6fe656f5e0"><path d="M 237.800781 13.722656 L 320.089844 13.722656 C 343.285156 13.722656 362.089844 32.527344 362.089844 55.722656 L 362.089844 137.175781 C 362.089844 160.371094 343.285156 179.175781 320.089844 179.175781 L 237.800781 179.175781 C 214.605469 179.175781 195.800781 160.371094 195.800781 137.175781 L 195.800781 55.722656 C 195.800781 32.527344 214.605469 13.722656 237.800781 13.722656 Z M 237.800781 13.722656 " clip-rule="nonzero"/></clipPath><clipPath id="5081bd7087"><path d="M 0.800781 0.722656 L 167 0.722656 L 167 166.175781 L 0.800781 166.175781 Z M 0.800781 0.722656 " clip-rule="nonzero"/></clipPath><clipPath id="477725f941"><path d="M 42.800781 0.722656 L 125.089844 0.722656 C 148.285156 0.722656 167.089844 19.527344 167.089844 42.722656 L 167.089844 124.175781 C 167.089844 147.371094 148.285156 166.175781 125.089844 166.175781 L 42.800781 166.175781 C 19.605469 166.175781 0.800781 147.371094 0.800781 124.175781 L 0.800781 42.722656 C 0.800781 19.527344 19.605469 0.722656 42.800781 0.722656 Z M 42.800781 0.722656 " clip-rule="nonzero"/></clipPath><clipPath id="2bcbc24e2c"><rect x="0" width="168" y="0" height="167"/></clipPath><clipPath id="bb214751b5"><path d="M 195.800781 195.824219 L 362.546875 195.824219 L 362.546875 361.277344 L 195.800781 361.277344 Z M 195.800781 195.824219 " clip-rule="nonzero"/></clipPath><clipPath id="afbb10d6b1"><path d="M 237.800781 195.824219 L 320.089844 195.824219 C 343.285156 195.824219 362.089844 214.628906 362.089844 237.824219 L 362.089844 319.277344 C 362.089844 342.472656 343.285156 361.277344 320.089844 361.277344 L 237.800781 361.277344 C 214.605469 361.277344 195.800781 342.472656 195.800781 319.277344 L 195.800781 237.824219 C 195.800781 214.628906 214.605469 195.824219 237.800781 195.824219 Z M 237.800781 195.824219 " clip-rule="nonzero"/></clipPath><clipPath id="ebe31415ad"><path d="M 0.800781 0.824219 L 167 0.824219 L 167 166.277344 L 0.800781 166.277344 Z M 0.800781 0.824219 " clip-rule="nonzero"/></clipPath><clipPath id="19ff11f76a"><path d="M 42.800781 0.824219 L 125.089844 0.824219 C 148.285156 0.824219 167.089844 19.628906 167.089844 42.824219 L 167.089844 124.277344 C 167.089844 147.472656 148.285156 166.277344 125.089844 166.277344 L 42.800781 166.277344 C 19.605469 166.277344 0.800781 147.472656 0.800781 124.277344 L 0.800781 42.824219 C 0.800781 19.628906 19.605469 0.824219 42.800781 0.824219 Z M 42.800781 0.824219 " clip-rule="nonzero"/></clipPath><clipPath id="38a1de3d0b"><rect x="0" width="168" y="0" height="167"/></clipPath><clipPath id="aca5dac04c"><rect x="0" width="72" y="0" height="134"/></clipPath><clipPath id="5eaa3252ef"><rect x="0" width="80" y="0" height="134"/></clipPath><clipPath id="8255532906"><rect x="0" width="80" y="0" height="135"/></clipPath><clipPath id="475c296e17"><rect x="0" width="65" y="0" height="135"/></clipPath></defs><g clip-path="url(#7d8a11f41d)"><g clip-path="url(#7ed1ad39c8)"><g transform="matrix(1, 0, 0, 1, 12, 13)"><g clip-path="url(#2b96f1b2b3)"><g clip-path="url(#337a2ef67e)"><g clip-path="url(#40cf21ca9a)"><path fill="#0f1e28" d="M 0.910156 0.722656 L 167.007812 0.722656 L 167.007812 166.175781 L 0.910156 166.175781 Z M 0.910156 0.722656 " fill-opacity="1" fill-rule="nonzero"/></g></g></g></g></g></g><g clip-path="url(#5f2eadd452)"><g clip-path="url(#a3f6b0fb7c)"><g transform="matrix(1, 0, 0, 1, 12, 195)"><g clip-path="url(#40d2a664ae)"><g clip-path="url(#d33aac95fe)"><g clip-path="url(#95b55a3682)"><path fill="#0f1e28" d="M 0.910156 0.824219 L 167.007812 0.824219 L 167.007812 166.277344 L 0.910156 166.277344 Z M 0.910156 0.824219 " fill-opacity="1" fill-rule="nonzero"/></g></g></g></g></g></g><g clip-path="url(#eaf7087f2a)"><g clip-path="url(#6fe656f5e0)"><g transform="matrix(1, 0, 0, 1, 195, 13)"><g clip-path="url(#2bcbc24e2c)"><g clip-path="url(#5081bd7087)"><g clip-path="url(#477725f941)"><path fill="#0f1e28" d="M 0.800781 0.722656 L 166.898438 0.722656 L 166.898438 166.175781 L 0.800781 166.175781 Z M 0.800781 0.722656 " fill-opacity="1" fill-rule="nonzero"/></g></g></g></g></g></g><g clip-path="url(#bb214751b5)"><g clip-path="url(#afbb10d6b1)"><g transform="matrix(1, 0, 0, 1, 195, 195)"><g clip-path="url(#38a1de3d0b)"><g clip-path="url(#ebe31415ad)"><g clip-path="url(#19ff11f76a)"><path fill="#0f1e28" d="M 0.800781 0.824219 L 166.898438 0.824219 L 166.898438 166.277344 L 0.800781 166.277344 Z M 0.800781 0.824219 " fill-opacity="1" fill-rule="nonzero"/></g></g></g></g></g></g><g transform="matrix(1, 0, 0, 1, 60, 28)"><g clip-path="url(#aca5dac04c)"><g fill="#87d6fb" fill-opacity="1"><g transform="translate(0.947499, 106.162388)"><g><path d="M 3.578125 -22.3125 L 19.375 -22.3125 C 19.625 -20.175781 20.484375 -18.300781 21.953125 -16.6875 C 23.421875 -15.082031 25.328125 -13.832031 27.671875 -12.9375 C 30.023438 -12.050781 32.648438 -11.609375 35.546875 -11.609375 C 38.484375 -11.609375 41.050781 -12.035156 43.25 -12.890625 C 45.457031 -13.742188 47.175781 -14.921875 48.40625 -16.421875 C 49.644531 -17.921875 50.265625 -19.628906 50.265625 -21.546875 C 50.265625 -24.117188 49.25 -26.171875 47.21875 -27.703125 C 45.195312 -29.242188 41.8125 -30.539062 37.0625 -31.59375 L 26.859375 -33.8125 C 12.492188 -36.882812 5.3125 -44.175781 5.3125 -55.6875 C 5.3125 -59.300781 6.046875 -62.570312 7.515625 -65.5 C 8.984375 -68.4375 11.054688 -70.960938 13.734375 -73.078125 C 16.410156 -75.191406 19.578125 -76.816406 23.234375 -77.953125 C 26.890625 -79.097656 30.90625 -79.671875 35.28125 -79.671875 C 41.351562 -79.671875 46.613281 -78.691406 51.0625 -76.734375 C 55.519531 -74.785156 58.976562 -72.046875 61.4375 -68.515625 C 63.894531 -64.992188 65.160156 -60.863281 65.234375 -56.125 L 49.875 -56.125 C 49.695312 -58.332031 48.972656 -60.226562 47.703125 -61.8125 C 46.441406 -63.40625 44.75 -64.628906 42.625 -65.484375 C 40.507812 -66.335938 38.078125 -66.765625 35.328125 -66.765625 C 32.648438 -66.765625 30.289062 -66.363281 28.25 -65.5625 C 26.207031 -64.769531 24.625 -63.648438 23.5 -62.203125 C 22.375 -60.753906 21.8125 -59.050781 21.8125 -57.09375 C 21.8125 -54.675781 22.820312 -52.734375 24.84375 -51.265625 C 26.875 -49.796875 30.132812 -48.535156 34.625 -47.484375 L 44.125 -45.484375 C 51.976562 -43.816406 57.695312 -41.21875 61.28125 -37.6875 C 64.863281 -34.164062 66.65625 -29.421875 66.65625 -23.453125 C 66.65625 -18.378906 65.359375 -13.988281 62.765625 -10.28125 C 60.179688 -6.570312 56.507812 -3.703125 51.75 -1.671875 C 46.988281 0.347656 41.375 1.359375 34.90625 1.359375 C 28.644531 1.359375 23.195312 0.410156 18.5625 -1.484375 C 13.925781 -3.390625 10.316406 -6.113281 7.734375 -9.65625 C 5.148438 -13.207031 3.765625 -17.425781 3.578125 -22.3125 Z M 3.578125 -22.3125 "/></g></g></g></g></g><g transform="matrix(1, 0, 0, 1, 239, 28)"><g clip-path="url(#5eaa3252ef)"><g fill="#87d6fb" fill-opacity="1"><g transform="translate(0.341576, 106.162388)"><g><path d="M 41.140625 1.359375 C 35.460938 1.359375 30.332031 0.4375 25.75 -1.40625 C 21.175781 -3.25 17.28125 -5.925781 14.0625 -9.4375 C 10.84375 -12.945312 8.375 -17.195312 6.65625 -22.1875 C 4.9375 -27.1875 4.078125 -32.851562 4.078125 -39.1875 C 4.078125 -45.476562 4.9375 -51.128906 6.65625 -56.140625 C 8.375 -61.160156 10.847656 -65.414062 14.078125 -68.90625 C 17.316406 -72.394531 21.21875 -75.0625 25.78125 -76.90625 C 30.34375 -78.75 35.460938 -79.671875 41.140625 -79.671875 C 45.847656 -79.671875 50.21875 -78.960938 54.25 -77.546875 C 58.28125 -76.140625 61.84375 -74.125 64.9375 -71.5 C 68.03125 -68.882812 70.488281 -65.773438 72.3125 -62.171875 C 74.144531 -58.566406 75.222656 -54.578125 75.546875 -50.203125 L 59.59375 -50.203125 C 59.082031 -53.421875 57.976562 -56.210938 56.28125 -58.578125 C 54.582031 -60.953125 52.429688 -62.800781 49.828125 -64.125 C 47.222656 -65.445312 44.328125 -66.109375 41.140625 -66.109375 C 37.015625 -66.109375 33.429688 -65.015625 30.390625 -62.828125 C 27.347656 -60.640625 24.984375 -57.535156 23.296875 -53.515625 C 21.617188 -49.492188 20.78125 -44.734375 20.78125 -39.234375 C 20.78125 -33.660156 21.613281 -28.859375 23.28125 -24.828125 C 24.945312 -20.796875 27.304688 -17.6875 30.359375 -15.5 C 33.421875 -13.3125 37.03125 -12.21875 41.1875 -12.21875 C 44.445312 -12.21875 47.351562 -12.820312 49.90625 -14.03125 C 52.457031 -15.238281 54.570312 -16.960938 56.25 -19.203125 C 57.9375 -21.453125 59.070312 -24.113281 59.65625 -27.1875 L 75.609375 -27.1875 C 75.140625 -22.8125 73.988281 -18.867188 72.15625 -15.359375 C 70.332031 -11.847656 67.910156 -8.84375 64.890625 -6.34375 C 61.867188 -3.851562 58.359375 -1.945312 54.359375 -0.625 C 50.359375 0.695312 45.953125 1.359375 41.140625 1.359375 Z M 41.140625 1.359375 "/></g></g></g></g></g><g transform="matrix(1, 0, 0, 1, 56, 210)"><g clip-path="url(#8255532906)"><g fill="#87d6fb" fill-opacity="1"><g transform="translate(0.450579, 106.261786)"><g><path d="M 41.140625 1.359375 C 35.460938 1.359375 30.332031 0.4375 25.75 -1.40625 C 21.175781 -3.25 17.28125 -5.925781 14.0625 -9.4375 C 10.84375 -12.945312 8.375 -17.195312 6.65625 -22.1875 C 4.9375 -27.1875 4.078125 -32.851562 4.078125 -39.1875 C 4.078125 -45.476562 4.9375 -51.128906 6.65625 -56.140625 C 8.375 -61.160156 10.847656 -65.414062 14.078125 -68.90625 C 17.316406 -72.394531 21.21875 -75.0625 25.78125 -76.90625 C 30.34375 -78.75 35.460938 -79.671875 41.140625 -79.671875 C 45.847656 -79.671875 50.21875 -78.960938 54.25 -77.546875 C 58.28125 -76.140625 61.84375 -74.125 64.9375 -71.5 C 68.03125 -68.882812 70.488281 -65.773438 72.3125 -62.171875 C 74.144531 -58.566406 75.222656 -54.578125 75.546875 -50.203125 L 59.59375 -50.203125 C 59.082031 -53.421875 57.976562 -56.210938 56.28125 -58.578125 C 54.582031 -60.953125 52.429688 -62.800781 49.828125 -64.125 C 47.222656 -65.445312 44.328125 -66.109375 41.140625 -66.109375 C 37.015625 -66.109375 33.429688 -65.015625 30.390625 -62.828125 C 27.347656 -60.640625 24.984375 -57.535156 23.296875 -53.515625 C 21.617188 -49.492188 20.78125 -44.734375 20.78125 -39.234375 C 20.78125 -33.660156 21.613281 -28.859375 23.28125 -24.828125 C 24.945312 -20.796875 27.304688 -17.6875 30.359375 -15.5 C 33.421875 -13.3125 37.03125 -12.21875 41.1875 -12.21875 C 44.445312 -12.21875 47.351562 -12.820312 49.90625 -14.03125 C 52.457031 -15.238281 54.570312 -16.960938 56.25 -19.203125 C 57.9375 -21.453125 59.070312 -24.113281 59.65625 -27.1875 L 75.609375 -27.1875 C 75.140625 -22.8125 73.988281 -18.867188 72.15625 -15.359375 C 70.332031 -11.847656 67.910156 -8.84375 64.890625 -6.34375 C 61.867188 -3.851562 58.359375 -1.945312 54.359375 -0.625 C 50.359375 0.695312 45.953125 1.359375 41.140625 1.359375 Z M 41.140625 1.359375 "/></g></g></g></g></g><g transform="matrix(1, 0, 0, 1, 246, 210)"><g clip-path="url(#475c296e17)"><g fill="#87d6fb" fill-opacity="1"><g transform="translate(2.459469, 106.261786)"><g><path d="M 22.90625 0 L 6.515625 0 L 6.515625 -78.3125 L 57.796875 -78.3125 L 57.796875 -64.8125 L 22.90625 -64.8125 L 22.90625 -43.796875 L 54.765625 -43.796875 L 54.765625 -30.828125 L 22.90625 -30.828125 Z M 22.90625 0 "/></g></g></g></g></g></svg>